<svg width="100" height="113" viewBox="0 0 100 113" fill="none" xmlns="http://www.w3.org/2000/svg">
<g clip-path="url(#clip0_6_2)">
<path d="M99.8316 33.0937C99.8309 31.207 99.4273 29.5398 98.6113 28.109C97.8098 26.702 96.6094 25.5227 94.9992 24.5902C81.7082 16.9266 68.4043 9.28633 55.1176 1.61484C51.5355 -0.453128 48.0625 -0.377737 44.507 1.71992C39.2168 4.83984 12.7305 20.0144 4.83789 24.5859C1.5875 26.4676 0.00585938 29.3473 0.00507813 33.0902C0 48.5023 0.00507813 63.9141 0 79.3266C0.00078125 81.1719 0.387109 82.8066 1.16719 84.216C1.96914 85.6656 3.18633 86.8773 4.83359 87.8309C12.7266 92.4023 39.2164 107.576 44.5055 110.696C48.0625 112.795 51.5355 112.87 55.1188 110.802C68.4059 103.13 81.7105 95.4898 95.0035 87.8262C96.6508 86.873 97.868 85.6605 98.6699 84.2121C99.4488 82.8027 99.8359 81.168 99.8367 79.3223C99.8367 79.3223 99.8367 48.5062 99.8316 33.0937Z" fill="#777777"/>
<path d="M50.0711 56.0582L1.16718 84.216C1.96913 85.6656 3.18632 86.8773 4.83358 87.8309C12.7265 92.4023 39.2164 107.576 44.5055 110.696C48.0625 112.795 51.5355 112.87 55.1187 110.802C68.4058 103.13 81.7105 95.4898 95.0035 87.8262C96.6508 86.873 97.868 85.6605 98.6699 84.2121L50.0711 56.0582Z" fill="#777777"/>
<path d="M35.5863 64.3988C38.432 69.3668 43.7816 72.7176 49.9183 72.7176C56.0929 72.7176 61.473 69.3242 64.3043 64.3031L50.0711 56.0582L35.5863 64.3988Z" fill="#777777"/>
<path d="M99.8317 33.0937C99.8309 31.207 99.4274 29.5398 98.6113 28.109L50.0711 56.0582L98.6699 84.2121C99.4488 82.8027 99.8359 81.168 99.8367 79.3223C99.8367 79.3223 99.8367 48.5062 99.8317 33.0937Z" fill="#777777"/>
<path d="M97.1594 58.0707H93.3617V61.8691H89.5633V58.0707H85.766V54.2734H89.5633V50.4758H93.3617V54.2734H97.1594V58.0707ZM83.3019 58.0707H79.5047V61.8691H75.707V58.0707H71.9094V54.2734H75.707V50.4758H79.5047V54.2734H83.3019V58.0707Z" fill="white"/>
<path d="M64.3043 64.3031C61.473 69.3242 56.0929 72.7176 49.9183 72.7176C43.7816 72.7176 38.432 69.3668 35.5863 64.3988C34.1568 61.906 33.406 59.0818 33.409 56.2082C33.409 47.0906 40.8008 39.6992 49.9183 39.6992C56.0156 39.6992 61.3371 43.0082 64.1969 47.9254L78.6269 39.616C72.8914 29.7152 62.1832 23.0543 49.9183 23.0543C31.6074 23.0543 16.764 37.898 16.764 56.2082C16.764 62.2152 18.3621 67.8484 21.1551 72.7074C26.8761 82.6605 37.6148 89.3625 49.9183 89.3625C62.2445 89.3625 73 82.6336 78.7129 72.6512L64.3043 64.3031Z" fill="white"/>
</g>
<defs>
<clipPath id="clip0_6_2">
<rect width="100" height="112.511" fill="white"/>
</clipPath>
</defs>
</svg>
